<svg width="1280" height="820" viewBox="0 0 1280 820" fill="none" xmlns="http://www.w3.org/2000/svg" role="img" aria-labelledby="title desc">
  <title id="title">Visual Notes rendered inside an Obsidian daily note</title>
  <desc id="desc">An Obsidian note preview showing a Visual Notes concept map card with nodes, labeled edges, legend, and usage footer above ordinary markdown content.</desc>
  <defs>
    <filter id="shadow" x="-20%" y="-20%" width="140%" height="140%">
      <feDropShadow dx="0" dy="18" stdDeviation="18" flood-color="#0f172a" flood-opacity="0.18"/>
    </filter>
    <marker id="arrow" markerWidth="10" markerHeight="10" refX="8" refY="3" orient="auto" markerUnits="strokeWidth">
      <path d="M0,0 L0,6 L9,3 z" fill="#64748b"/>
    </marker>
    <marker id="arrowStrong" markerWidth="10" markerHeight="10" refX="8" refY="3" orient="auto" markerUnits="strokeWidth">
      <path d="M0,0 L0,6 L9,3 z" fill="#334155"/>
    </marker>
  </defs>

  <rect width="1280" height="820" rx="28" fill="#0f172a"/>
  <rect x="32" y="32" width="1216" height="756" rx="22" fill="#f8fafc" filter="url(#shadow)"/>

  <rect x="32" y="32" width="236" height="756" rx="22" fill="#111827"/>
  <rect x="32" y="32" width="236" height="54" rx="22" fill="#1f2937"/>
  <circle cx="64" cy="59" r="7" fill="#ef4444"/>
  <circle cx="88" cy="59" r="7" fill="#f59e0b"/>
  <circle cx="112" cy="59" r="7" fill="#22c55e"/>
  <text x="56" y="123" fill="#cbd5e1" font-family="Inter, Arial, sans-serif" font-size="15" font-weight="700">Test Vault</text>
  <text x="74" y="164" fill="#94a3b8" font-family="Inter, Arial, sans-serif" font-size="13">0 Daily ADHD Brain Logs</text>
  <rect x="56" y="185" width="184" height="34" rx="8" fill="#334155"/>
  <text x="74" y="207" fill="#f8fafc" font-family="Inter, Arial, sans-serif" font-size="13">20260502.md</text>
  <text x="74" y="246" fill="#94a3b8" font-family="Inter, Arial, sans-serif" font-size="13">20260502-overview.json</text>

  <rect x="268" y="32" width="980" height="54" fill="#ffffff"/>
  <text x="306" y="66" fill="#0f172a" font-family="Inter, Arial, sans-serif" font-size="17" font-weight="700">20260502</text>
  <rect x="1104" y="48" width="96" height="24" rx="12" fill="#eef2ff"/>
  <text x="1120" y="65" fill="#4f46e5" font-family="Inter, Arial, sans-serif" font-size="12" font-weight="700">Reading view</text>

  <g transform="translate(310 118)">
    <text x="0" y="0" fill="#0f172a" font-family="Inter, Arial, sans-serif" font-size="32" font-weight="800">Daily ADHD Brain Log</text>
    <rect x="0" y="30" width="860" height="26" rx="8" fill="#f1f5f9"/>
    <text x="14" y="48" fill="#64748b" font-family="Inter, Arial, sans-serif" font-size="13">tags: daily, work, visual-notes • created: 2026-05-02</text>

    <g transform="translate(0 80)">
      <rect width="860" height="442" rx="18" fill="#ffffff" stroke="#cbd5e1" stroke-width="2"/>
      <rect width="860" height="74" rx="18" fill="#f8fafc"/>
      <text x="24" y="32" fill="#0f172a" font-family="Inter, Arial, sans-serif" font-size="18" font-weight="800">Daily Overview</text>
      <text x="24" y="55" fill="#64748b" font-family="Inter, Arial, sans-serif" font-size="13">Visual summary generated from today&apos;s note</text>

      <g transform="translate(548 16)">
        <text x="0" y="0" fill="#94a3b8" font-family="Inter, Arial, sans-serif" font-size="10" font-weight="800">STATUS</text>
        <rect x="0" y="10" width="10" height="10" rx="2" fill="#a6e3a1" stroke="#40a02b"/>
        <text x="15" y="20" fill="#64748b" font-family="Inter, Arial, sans-serif" font-size="11">done</text>
        <rect x="55" y="10" width="10" height="10" rx="2" fill="#f9e2af" stroke="#df8e1d"/>
        <text x="70" y="20" fill="#64748b" font-family="Inter, Arial, sans-serif" font-size="11">active</text>
        <rect x="116" y="10" width="10" height="10" rx="2" fill="#89b4fa" stroke="#1e66f5"/>
        <text x="131" y="20" fill="#64748b" font-family="Inter, Arial, sans-serif" font-size="11">context</text>
        <rect x="190" y="10" width="10" height="10" rx="2" fill="#f38ba8" stroke="#d20f39"/>
        <text x="205" y="20" fill="#64748b" font-family="Inter, Arial, sans-serif" font-size="11">blocked</text>
        <text x="0" y="40" fill="#94a3b8" font-family="Inter, Arial, sans-serif" font-size="10" font-weight="800">TYPE</text>
        <rect x="35" y="30" width="12" height="12" rx="3" fill="#e2e8f0" stroke="#94a3b8"/>
        <text x="52" y="41" fill="#64748b" font-family="Inter, Arial, sans-serif" font-size="11">system</text>
        <ellipse cx="112" cy="36" rx="7" ry="6" fill="#e2e8f0" stroke="#94a3b8"/>
        <text x="124" y="41" fill="#64748b" font-family="Inter, Arial, sans-serif" font-size="11">task</text>
        <rect x="176" y="30" width="10" height="10" transform="rotate(45 181 35)" fill="#e2e8f0" stroke="#94a3b8"/>
        <text x="194" y="41" fill="#64748b" font-family="Inter, Arial, sans-serif" font-size="11">decision</text>
      </g>

      <g transform="translate(0 74)">
        <rect width="860" height="318" fill="#ffffff"/>
        <line x1="170" y1="168" x2="330" y2="114" stroke="#334155" stroke-width="3" marker-end="url(#arrowStrong)"/>
        <text x="226" y="131" fill="#475569" font-family="Inter, Arial, sans-serif" font-size="12" font-weight="700">drives</text>
        <line x1="412" y1="110" x2="552" y2="110" stroke="#64748b" stroke-width="2" marker-end="url(#arrow)"/>
        <text x="450" y="98" fill="#64748b" font-family="Inter, Arial, sans-serif" font-size="12">updates</text>
        <line x1="624" y1="132" x2="695" y2="204" stroke="#64748b" stroke-width="2" marker-end="url(#arrow)"/>
        <text x="655" y="161" fill="#64748b" font-family="Inter, Arial, sans-serif" font-size="12">reveals</text>
        <line x1="360" y1="142" x2="300" y2="230" stroke="#64748b" stroke-width="2" stroke-dasharray="6 5" marker-end="url(#arrow)"/>
        <text x="286" y="184" fill="#64748b" font-family="Inter, Arial, sans-serif" font-size="12">blocks</text>
        <line x1="492" y1="142" x2="450" y2="225" stroke="#64748b" stroke-width="2" marker-end="url(#arrow)"/>
        <text x="427" y="181" fill="#64748b" font-family="Inter, Arial, sans-serif" font-size="12">uses</text>
        <line x1="552" y1="236" x2="698" y2="236" stroke="#64748b" stroke-width="2" marker-end="url(#arrow)"/>
        <text x="586" y="224" fill="#64748b" font-family="Inter, Arial, sans-serif" font-size="12">summarizes</text>

        <rect x="42" y="132" width="156" height="72" rx="18" fill="#89b4fa" stroke="#1e66f5" stroke-width="3"/>
        <text x="120" y="162" text-anchor="middle" fill="#0f172a" font-family="Inter, Arial, sans-serif" font-size="14" font-weight="800">Daily note</text>
        <text x="120" y="181" text-anchor="middle" fill="#0f172a" font-family="Inter, Arial, sans-serif" font-size="13" font-weight="700">source</text>

        <rect x="324" y="74" width="122" height="72" rx="18" fill="#f9e2af" stroke="#df8e1d" stroke-width="3"/>
        <text x="385" y="104" text-anchor="middle" fill="#0f172a" font-family="Inter, Arial, sans-serif" font-size="14" font-weight="800">Visual</text>
        <text x="385" y="123" text-anchor="middle" fill="#0f172a" font-family="Inter, Arial, sans-serif" font-size="13" font-weight="700">extraction</text>

        <ellipse cx="592" cy="110" rx="78" ry="40" fill="#a6e3a1" stroke="#40a02b" stroke-width="3"/>
        <text x="592" y="106" text-anchor="middle" fill="#0f172a" font-family="Inter, Arial, sans-serif" font-size="14" font-weight="800">Sidecar</text>
        <text x="592" y="125" text-anchor="middle" fill="#0f172a" font-family="Inter, Arial, sans-serif" font-size="13" font-weight="700">JSON</text>

        <rect x="691" y="194" width="126" height="84" transform="rotate(45 754 236)" fill="#f9e2af" stroke="#df8e1d" stroke-width="3"/>
        <text x="754" y="232" text-anchor="middle" fill="#0f172a" font-family="Inter, Arial, sans-serif" font-size="13" font-weight="800">Layout</text>
        <text x="754" y="250" text-anchor="middle" fill="#0f172a" font-family="Inter, Arial, sans-serif" font-size="12" font-weight="700">decision</text>

        <ellipse cx="290" cy="248" rx="82" ry="38" fill="#f38ba8" stroke="#d20f39" stroke-width="3"/>
        <text x="290" y="244" text-anchor="middle" fill="#0f172a" font-family="Inter, Arial, sans-serif" font-size="13" font-weight="800">Marketplace</text>
        <text x="290" y="262" text-anchor="middle" fill="#0f172a" font-family="Inter, Arial, sans-serif" font-size="12" font-weight="700">prep</text>

        <rect x="402" y="214" width="150" height="72" rx="18" fill="#89b4fa" stroke="#1e66f5" stroke-width="3"/>
        <text x="477" y="244" text-anchor="middle" fill="#0f172a" font-family="Inter, Arial, sans-serif" font-size="13" font-weight="800">Section-aware</text>
        <text x="477" y="263" text-anchor="middle" fill="#0f172a" font-family="Inter, Arial, sans-serif" font-size="12" font-weight="700">updates</text>
      </g>

      <rect x="0" y="392" width="860" height="50" rx="0" fill="#f8fafc"/>
      <line x1="0" y1="392" x2="860" y2="392" stroke="#cbd5e1"/>
      <text x="24" y="423" fill="#64748b" font-family="Inter, Arial, sans-serif" font-size="13">Last: 14,071 tokens (11,521 in / 2,550 out) ($0.0243) · Cumulative: 14,071 tokens ($0.0243)</text>
    </g>

    <g transform="translate(0 560)">
      <text x="0" y="0" fill="#0f172a" font-family="Inter, Arial, sans-serif" font-size="21" font-weight="800">Tasks</text>
      <rect x="0" y="22" width="20" height="20" rx="5" fill="#ffffff" stroke="#cbd5e1"/>
      <text x="34" y="38" fill="#334155" font-family="Inter, Arial, sans-serif" font-size="16">Review layout issue</text>
      <rect x="0" y="58" width="20" height="20" rx="5" fill="#ffffff" stroke="#cbd5e1"/>
      <text x="34" y="74" fill="#334155" font-family="Inter, Arial, sans-serif" font-size="16">Prepare marketplace checklist</text>
      <text x="0" y="122" fill="#0f172a" font-family="Inter, Arial, sans-serif" font-size="21" font-weight="800">Notes</text>
      <rect x="0" y="142" width="760" height="12" rx="6" fill="#e2e8f0"/>
      <rect x="0" y="166" width="640" height="12" rx="6" fill="#e2e8f0"/>
    </g>
  </g>
</svg>
